<svg width="35" height="11" viewBox="0 0 35 11" fill="none" xmlns="http://www.w3.org/2000/svg">
<path d="M2.82231 0.491999C3.97431 0.491999 4.80231 1.284 4.80231 2.472V3.12C4.80231 3.84 4.49031 4.344 3.98631 4.668C4.58631 4.98 4.97031 5.568 4.97031 6.372V7.044C4.97031 8.28 4.07031 9.108 2.83431 9.108C1.63431 9.108 0.770312 8.232 0.770312 6.924V6.408H1.98231V7.056C1.98231 7.704 2.34231 8.088 2.83431 8.088C3.35031 8.088 3.75831 7.692 3.75831 7.032V6.18C3.75831 5.58 3.39831 5.208 2.91831 5.208H2.27031V4.2H2.75031C3.21831 4.2 3.59031 3.852 3.59031 3.276V2.508C3.59031 1.884 3.25431 1.512 2.82231 1.512C2.35431 1.512 1.98231 1.896 1.98231 2.532V3.204H0.770312V2.676C0.770312 1.368 1.63431 0.491999 2.82231 0.491999ZM6.04834 9H4.80034L6.68434 0.599999H7.93234L9.81634 9H8.56834L8.24434 7.32H6.37234L6.04834 9ZM7.30834 2.52L6.56434 6.312H8.04034L7.30834 2.52ZM14.6374 0.599999V7.992H15.4774V10.716H14.2654V9H10.9054V10.716H9.70544V7.992H10.4014C10.6654 7.452 10.8934 6.204 10.8934 1.968V0.599999H14.6374ZM12.0094 1.968C12.0094 5.472 11.9014 7.164 11.4934 7.992H13.4254V1.608H12.0094V1.968ZM16.5929 9H15.3449L17.2289 0.599999H18.4769L20.3609 9H19.1129L18.7889 7.32H16.9169L16.5929 9ZM17.8529 2.52L17.1089 6.312H18.5849L17.8529 2.52ZM21.798 9H20.586V0.599999H21.798V4.272H23.502V0.599999H24.714V9H23.502V5.28H21.798V9ZM26.3445 9H25.3485V0.599999H26.5605V5.904L28.5405 0.599999H29.5485V9H28.3365V3.672L26.3445 9ZM34.0573 0.599999V9H32.8453V5.628H32.1973L31.1293 9H29.8933L31.2133 5.46C30.4933 5.136 30.0373 4.404 30.0373 3.444V2.784C30.0373 1.476 30.8893 0.599999 32.0773 0.599999H34.0573ZM31.2613 3.576C31.2613 4.224 31.5973 4.608 32.1133 4.608H32.8453V1.608H32.1133C31.5973 1.608 31.2613 2.004 31.2613 2.64V3.576Z" fill="#989898"/>
</svg>
