<svg width="351" height="359" viewBox="0 0 351 359" fill="none" xmlns="http://www.w3.org/2000/svg">
<path d="M346.61 358.258L3.6238 358.387C1.66916 358.387 0.0768244 356.794 0.0768244 354.84L0.0078125 130.344H350.114L350.157 354.711C350.157 356.674 348.564 358.258 346.61 358.258Z" fill="#BC0202"/>
<path d="M175.079 0.984375L0 130.348L175.079 244.361L350.115 130.348L175.079 0.984375Z" fill="#9B0202"/>
<path d="M345.274 133.485L175.094 244.373L4.85352 133.485L175.094 7.70312L345.274 133.485Z" fill="#F2935D"/>
<path d="M10.3118 358.383H3.90649C1.74584 358.383 0.0839844 356.662 0.0839844 354.569V348.164L10.3118 358.383Z" fill="#DC0000"/>
<path d="M15.706 343.976L14.4836 342.754L0.0800781 328.359V344.562L13.9153 358.38L30.1096 358.371L15.706 343.976Z" fill="#EDEFEF"/>
<path d="M0.0683594 308.555L14.4719 322.95L14.4805 339.152L0.0769926 324.758L0.0683594 308.555Z" fill="#DC0000"/>
<path d="M49.9145 358.363L33.7121 358.372L19.3086 343.977L35.5115 343.969L49.9145 358.363Z" fill="#DC0000"/>
<path d="M0.0605469 288.758L14.4641 303.152L14.4727 319.355L0.0691801 304.96L0.0605469 288.758Z" fill="#EDEFEF"/>
<path d="M69.7153 358.356L53.5129 358.364L39.1094 343.97L55.3123 343.961L69.7153 358.356Z" fill="#EDEFEF"/>
<path d="M0.0546875 268.953L14.4577 283.348L14.4663 299.55L0.0633208 285.156L0.0546875 268.953Z" fill="#DC0000"/>
<path d="M89.5161 358.348L73.3132 358.356L58.9102 343.962L75.1125 343.953L89.5161 358.348Z" fill="#DC0000"/>
<path d="M0.046875 249.156L14.4504 263.551L14.459 279.754L0.0555005 265.359L0.046875 249.156Z" fill="#EDEFEF"/>
<path d="M109.317 358.348L93.1145 358.357L78.7109 343.962L94.9138 343.953L109.317 358.348Z" fill="#EDEFEF"/>
<path d="M0.0390625 229.352L14.4421 243.746L14.4507 259.949L0.047688 245.554L0.0390625 229.352Z" fill="#DC0000"/>
<path d="M129.118 358.34L112.915 358.349L98.5117 343.954L114.715 343.945L129.118 358.34Z" fill="#DC0000"/>
<path d="M0.0332031 209.555L14.4367 223.95L14.4454 240.152L0.0418364 225.758L0.0332031 209.555Z" fill="#EDEFEF"/>
<path d="M148.92 358.332L132.717 358.341L118.314 343.946L134.517 343.938L148.92 358.332Z" fill="#EDEFEF"/>
<path d="M0.0253906 189.75L14.4289 204.145L14.4376 220.348L0.0340161 205.953L0.0253906 189.75Z" fill="#DC0000"/>
<path d="M168.722 358.325L152.519 358.333L138.115 343.938L154.318 343.93L168.722 358.325Z" fill="#DC0000"/>
<path d="M0.0175781 169.953L14.4211 184.348L14.4297 200.55L0.0262036 186.156L0.0175781 169.953Z" fill="#EDEFEF"/>
<path d="M188.522 358.317L172.32 358.325L157.916 343.931L174.119 343.922L188.522 358.317Z" fill="#EDEFEF"/>
<path d="M0.0117188 150.148L14.4147 164.543L14.4234 180.746L0.0203443 166.351L0.0117188 150.148Z" fill="#DC0000"/>
<path d="M208.323 358.309L192.197 358.318L177.785 343.923L193.919 343.914L208.323 358.309Z" fill="#DC0000"/>
<path d="M0.00390625 130.344L14.4074 139.728L14.4161 160.942L0.0125318 146.547L0.00390625 130.344Z" fill="#EDEFEF"/>
<path d="M228.196 358.301L211.925 358.309L197.521 343.915L213.793 343.906L228.196 358.301Z" fill="#EDEFEF"/>
<path d="M247.926 358.293L231.8 358.302L217.389 343.907L233.522 343.898L247.926 358.293Z" fill="#DC0000"/>
<path d="M267.799 358.286L251.527 358.294L237.123 343.899L253.395 343.891L267.799 358.286Z" fill="#EDEFEF"/>
<path d="M287.528 358.278L271.402 358.286L256.99 343.891L273.124 343.883L287.528 358.278Z" fill="#DC0000"/>
<path d="M307.401 358.269L291.198 358.278L276.795 343.884L292.997 343.875L307.401 358.269Z" fill="#EDEFEF"/>
<path d="M327.202 358.262L310.999 358.271L296.596 343.876L312.799 343.867L327.202 358.262Z" fill="#DC0000"/>
<path d="M346.932 358.185C346.717 358.254 346.57 358.254 346.355 358.254L330.807 358.263L316.395 343.868L332.597 343.859L346.932 358.185Z" fill="#EDEFEF"/>
<path d="M350.165 341.621L350.174 354.441C350.174 355.37 349.812 356.24 349.235 356.886L335.762 343.429V327.227L350.165 341.621Z" fill="#DC0000"/>
<path d="M350.157 321.824L350.166 338.027L335.754 323.632V307.43L350.157 321.824Z" fill="#EDEFEF"/>
<path d="M350.152 302.02L350.16 318.222L335.748 303.828V287.625L350.152 302.02Z" fill="#DC0000"/>
<path d="M350.144 282.223L350.152 298.425L335.74 284.031V267.828L350.144 282.223Z" fill="#EDEFEF"/>
<path d="M350.135 262.418L350.144 278.621L335.732 264.226V248.023L350.135 262.418Z" fill="#DC0000"/>
<path d="M350.13 242.621L350.139 258.824L335.727 244.429V228.227L350.13 242.621Z" fill="#EDEFEF"/>
<path d="M350.122 222.817L350.13 239.02L335.719 224.625V208.422L350.122 222.817Z" fill="#DC0000"/>
<path d="M350.114 203.012L350.123 219.137L335.711 204.742V188.617L350.114 203.012Z" fill="#EDEFEF"/>
<path d="M350.109 183.145L350.117 199.416L335.705 185.022V168.75L350.109 183.145Z" fill="#DC0000"/>
<path d="M350.101 163.411L350.109 179.536L335.697 165.141V149.016L350.101 163.411Z" fill="#EDEFEF"/>
<path d="M350.11 143.554V159.791L335.689 145.439V139.74L341.613 135.883L350.11 143.554Z" fill="#DC0000"/>
<path d="M350.11 130.344V139.909L344.316 134.115L350.11 130.344Z" fill="#EDEFEF"/>
<path d="M318.678 289.781H195.307C194.118 289.781 193.154 288.817 193.154 287.629C193.154 286.441 194.118 285.477 195.307 285.477H318.678C319.866 285.477 320.83 286.441 320.83 287.629C320.83 288.817 319.866 289.781 318.678 289.781Z" fill="#F2935D"/>
<path d="M318.678 301.703H195.307C194.118 301.703 193.154 300.738 193.154 299.55C193.154 298.363 194.118 297.398 195.307 297.398H318.678C319.866 297.398 320.83 298.363 320.83 299.55C320.83 300.738 319.866 301.703 318.678 301.703Z" fill="#F2935D"/>
<path d="M318.678 313.633H195.307C194.118 313.633 193.154 312.669 193.154 311.481C193.154 310.292 194.118 309.328 195.307 309.328H318.678C319.866 309.328 320.83 310.292 320.83 311.481C320.83 312.669 319.866 313.633 318.678 313.633Z" fill="#F2935D"/>
</svg>
