<svg width="37" height="10" viewBox="0 0 37 10" fill="none" xmlns="http://www.w3.org/2000/svg">
<path d="M4.60302 6.924C4.60302 8.232 3.73902 9.108 2.55102 9.108C1.36301 9.108 0.499015 8.232 0.499015 6.924V2.676C0.499015 1.368 1.36301 0.491999 2.55102 0.491999C3.73902 0.491999 4.60302 1.368 4.60302 2.676V6.924ZM3.40302 7.056V2.532C3.40302 1.896 3.03101 1.512 2.55102 1.512C2.05901 1.512 1.71101 1.896 1.71101 2.532V7.068C1.71101 7.704 2.05901 8.088 2.55102 8.088C3.03101 8.088 3.40302 7.704 3.40302 7.056ZM10.6679 8.244H10.2719V9.108H9.05989V8.244H8.66389C7.47589 8.244 6.63589 7.38 6.63589 6.06V3.54C6.63589 2.22 7.47589 1.356 8.66389 1.356H9.05989V0.491999H10.2719V1.356H10.6679C11.8559 1.356 12.7079 2.22 12.7079 3.54V6.06C12.7079 7.38 11.8559 8.244 10.6679 8.244ZM10.6679 2.364H10.2719V7.236H10.6679C11.1359 7.236 11.4959 6.84 11.4959 6.204V3.396C11.4959 2.76 11.1359 2.364 10.6679 2.364ZM7.84789 6.204C7.84789 6.84 8.19589 7.236 8.66389 7.236H9.05989V2.364H8.66389C8.19589 2.364 7.84789 2.76 7.84789 3.396V6.204ZM14.2136 9H13.2176V0.599999H14.4296V5.904L16.4096 0.599999H17.4176V9H16.2056V3.672L14.2136 9ZM17.6904 8.088H17.7984C18.5184 8.088 18.7584 7.728 18.7584 1.968V0.599999H22.5144V9H21.3144V1.608H19.8744V1.968C19.8744 8.352 19.6344 9.108 17.7864 9.108H17.6904V8.088ZM23.1528 9V0.599999H24.3648V3.972H25.1328C26.3208 3.972 27.1728 4.848 27.1728 6.156V6.816C27.1728 8.124 26.3208 9 25.1328 9H23.1528ZM25.0968 4.992H24.3648V7.992H25.0968C25.6128 7.992 25.9608 7.596 25.9608 6.96V6.024C25.9608 5.376 25.6128 4.992 25.0968 4.992ZM28.7257 9H27.6457V0.599999H28.6297L30.1537 5.532L31.6897 0.599999H32.6737V9H31.5817V4.104L30.4897 7.5H29.8297L28.7257 4.068V9ZM36.5509 7.992V9H33.2989V0.599999H36.5509V1.608H34.5109V4.272H36.2989V5.28H34.5109V7.992H36.5509Z" fill="#ffffff"/>
</svg>
