<svg width="20" height="20" viewBox="0 0 20 20" fill="none" xmlns="http://www.w3.org/2000/svg">
<path d="M14.3301 9H5.66016C5.09015 10.195 3.86514 11 2.49515 11C2.42514 11 2.35513 11 2.28516 10.99L3.84515 18.795C3.98514 19.495 4.60016 20 5.31515 20H14.6751C15.3901 20 16.0052 19.495 16.1451 18.795L17.7051 10.99C17.6352 11 17.5652 11 17.4951 11C16.1252 11 14.9001 10.195 14.3301 9ZM6.99832 19.0552L5.99832 10.0552L6.99197 9.94482L7.99197 18.9448L6.99832 19.0552ZM10.4951 19H9.49515V10H10.4951V19ZM12.992 19.0552L11.9983 18.9448L12.9983 9.94482L13.992 10.0552L12.992 19.0552Z" fill="white"/>
<path d="M19.002 5.5C19.002 4.12 17.882 3 16.502 3C16.322 3 16.142 3.01999 15.9619 3.06C15.757 1.88998 14.732 1 13.502 1C13.047 1 12.602 1.125 12.222 1.35498C11.8019 0.544983 10.952 0 10.002 0C9.05194 0 8.20197 0.544983 7.78195 1.35498C7.40195 1.125 6.95694 1 6.50195 1C5.27194 1 4.24695 1.88998 4.04196 3.06C3.86194 3.01999 3.68195 3 3.50195 3C2.81195 3 2.18695 3.28 1.73196 3.72998C1.28195 4.185 1.00195 4.81 1.00195 5.5C0.376953 5.97 0.00195312 6.70999 0.00195312 7.5C0.00195312 8.88 1.12195 10 2.50195 10C3.70694 10 4.72195 9.13998 4.95197 8H15.0519C15.282 9.13998 16.297 10 17.502 10C18.882 10 20.002 8.88 20.002 7.5C20.002 6.70999 19.627 5.97 19.002 5.5Z" fill="white"/>
</svg>
