<svg width="45" height="22" viewBox="0 0 45 22" fill="none" xmlns="http://www.w3.org/2000/svg">
<g opacity="0.4">
<path d="M0 3.09859L6.91175 0.309859H9.57727V22H5.60998V4.1831L1.45674 5.85634L0 3.09859Z" fill="white"/>
<path d="M13.3711 22V19.893C22.9793 7.77746 23.6922 7.12676 23.6922 5.85634C23.6922 4.1831 22.4834 3.19155 20.7787 3.19155C18.9191 3.19155 17.6483 4.33803 17.6483 6.04225V6.94084H13.557V6.04225C13.557 2.44789 16.5325 0 20.7167 0C24.839 0 27.7835 2.44789 27.7835 5.82535C27.7835 7.83944 26.6677 8.89296 18.6711 18.8394H28.0314V22H13.3711Z" fill="white"/>
<path d="M36.7865 5.11268H39.8239V9.63662H45V12.6732H39.8239V17.1972H36.7865V12.6732H31.6104V9.63662H36.7865V5.11268Z" fill="white"/>
</g>
</svg>
