<svg width="23" height="22" viewBox="0 0 23 22" fill="none" xmlns="http://www.w3.org/2000/svg">
<path d="M11.5 -4.80825e-07C17.5751 -2.15273e-07 22.5 4.92487 22.5 11C22.5 17.0751 17.5751 22 11.5 22C5.42487 22 0.499999 17.0751 0.5 11C0.5 4.92487 5.42487 -7.46378e-07 11.5 -4.80825e-07Z" fill="url(#paint0_linear_264_60788)"/>
<path d="M11.5 -4.80825e-07C17.5751 -2.15273e-07 22.5 4.92487 22.5 11C22.5 17.0751 17.5751 22 11.5 22C5.42487 22 0.499999 17.0751 0.5 11C0.5 4.92487 5.42487 -7.46378e-07 11.5 -4.80825e-07Z" fill="url(#paint1_linear_264_60788)"/>
<path d="M22 11C22 16.799 17.299 21.5 11.5 21.5C5.70101 21.5 0.999999 16.799 1 11C1 5.20101 5.70101 0.499999 11.5 0.5C17.299 0.5 22 5.20101 22 11Z" stroke="white" stroke-opacity="0.38" style="mix-blend-mode:overlay"/>
<path d="M15.5 9L11.5 13L7.5 9" stroke="#6E000C" stroke-linecap="round" stroke-linejoin="round"/>
<defs>
<linearGradient id="paint0_linear_264_60788" x1="22.5" y1="11" x2="0.5" y2="11" gradientUnits="userSpaceOnUse">
<stop stop-color="#EA0300"/>
<stop offset="1" stop-color="#840715"/>
</linearGradient>
<linearGradient id="paint1_linear_264_60788" x1="22.5" y1="11" x2="0.5" y2="11" gradientUnits="userSpaceOnUse">
<stop stop-color="#FFC30B"/>
<stop offset="1" stop-color="#FF9500"/>
</linearGradient>
</defs>
</svg>
