<svg width="40" height="10" viewBox="0 0 40 10" fill="none" xmlns="http://www.w3.org/2000/svg">
<path d="M1.64487 9H0.564874V0.599999H1.54887L3.07287 5.532L4.60887 0.599999H5.59287V9H4.50087V4.104L3.40887 7.5H2.74887L1.64487 4.068V9ZM10.262 6.924C10.262 8.232 9.398 9.108 8.21 9.108C7.022 9.108 6.158 8.232 6.158 6.924V2.676C6.158 1.368 7.022 0.491999 8.21 0.491999C9.398 0.491999 10.262 1.368 10.262 2.676V6.924ZM9.062 7.056V2.532C9.062 1.896 8.69 1.512 8.21 1.512C7.718 1.512 7.37 1.896 7.37 2.532V7.068C7.37 7.704 7.718 8.088 8.21 8.088C8.69 8.088 9.062 7.704 9.062 7.056ZM11.8476 9H10.8516V0.599999H12.0636V5.904L14.0436 0.599999H15.0516V9H13.8396V3.672L11.8476 9ZM22.6717 0.599999H23.8837V9H17.2477V0.599999H18.4597V7.992H19.9597V0.599999H21.1717V7.992H22.6717V0.599999ZM25.3343 9H24.0863L25.9703 0.599999H27.2183L29.1023 9H27.8543L27.5303 7.32H25.6583L25.3343 9ZM26.5943 2.52L25.8503 6.312H27.3263L26.5943 2.52ZM31.2714 5.628H30.5394V9H29.3274V0.599999H31.2714C32.4594 0.599999 33.3114 1.476 33.3114 2.784V3.444C33.3114 4.752 32.4594 5.628 31.2714 5.628ZM31.2354 1.608H30.5394V4.608H31.2354C31.7514 4.608 32.0994 4.224 32.0994 3.576V2.64C32.0994 2.004 31.7514 1.608 31.2354 1.608ZM33.7266 9V0.599999H34.9386V3.972H35.7066C36.8946 3.972 37.7466 4.848 37.7466 6.156V6.816C37.7466 8.124 36.8946 9 35.7066 9H33.7266ZM38.2386 9V0.599999H39.4386V9H38.2386ZM35.6706 4.992H34.9386V7.992H35.6706C36.1866 7.992 36.5346 7.596 36.5346 6.96V6.024C36.5346 5.376 36.1866 4.992 35.6706 4.992Z" fill="white"/>
</svg>
