<svg width="20" height="20" viewBox="0 0 20 20" fill="none" xmlns="http://www.w3.org/2000/svg">
<path d="M17.3434 3.78399L19.3834 1.74399C19.5034 1.62399 19.5034 1.40799 19.3834 1.26399L18.7114 0.639988C18.5914 0.519988 18.3754 0.519988 18.2314 0.639988L16.1914 2.67999C16.0714 2.79999 15.8554 2.79999 15.7114 2.67999L14.5834 1.55199C14.4394 1.35999 14.1754 1.40799 14.0794 1.59999L13.4554 2.87199C13.4074 2.96799 13.3114 2.99199 13.2154 2.94399C12.0154 2.34399 10.6714 1.98399 9.23141 1.98399C6.71141 1.98399 4.43141 3.03999 2.82341 4.76799C2.63141 4.98399 2.63141 5.29599 2.82341 5.51199C2.99141 5.67999 3.23141 5.70399 3.42341 5.60799L5.17541 4.71999C5.31941 4.64799 5.51141 4.67199 5.63141 4.79199C5.75141 4.91199 5.77541 5.10399 5.70341 5.24799L4.71941 7.11999C4.64741 7.23999 4.67141 7.40799 4.88741 7.59999L6.30341 9.01599C6.37541 9.08799 6.42341 9.18399 6.39941 9.27999C6.35141 9.54399 6.13541 9.66399 5.94341 9.63999L3.85541 9.30399C3.71141 9.27999 3.56741 9.35199 3.51941 9.47199L2.55941 11.368C2.48741 11.512 2.31941 11.608 2.15141 11.584C1.98341 11.56 1.86341 11.416 1.83941 11.272L1.52741 9.30399C1.50341 9.08799 1.33541 8.91999 1.11941 8.89599C0.855414 8.84799 0.591414 9.03999 0.543414 9.30399C0.447414 9.78399 0.399414 10.288 0.399414 10.816C0.399414 15.664 4.33541 19.6 9.20741 19.6C10.1194 19.6 10.9834 19.456 11.8234 19.192C12.2074 19.072 12.4234 18.688 12.3514 18.304C12.3034 17.968 12.0394 17.704 11.6794 17.632L9.92741 17.344C9.75941 17.32 9.63941 17.2 9.61541 17.032C9.59141 16.864 9.68741 16.696 9.83141 16.624C9.83141 16.624 11.1754 15.928 11.7274 15.664C11.8474 15.592 11.9194 15.448 11.8954 15.328L11.5594 13.24C11.5354 13.12 11.5834 13 11.6554 12.904C11.7994 12.76 12.0634 12.76 12.2074 12.904L13.6954 14.416C13.7914 14.512 13.9594 14.536 14.0794 14.488L15.9754 13.528C16.1194 13.456 16.3114 13.48 16.4314 13.6C16.5514 13.72 16.5754 13.912 16.5034 14.056L15.5434 15.952C15.4714 16.072 15.4954 16.24 15.6154 16.336C15.7594 16.48 15.9754 16.456 16.0954 16.312C17.2954 14.8 18.0154 12.904 18.0154 10.84C18.0154 9.39999 17.6794 8.05599 17.0554 6.85599C17.0074 6.75999 17.0554 6.66399 17.1274 6.61599L18.3994 5.91999C18.5914 5.82399 18.6394 5.55999 18.4954 5.39199L17.3674 4.26399C17.1994 4.14399 17.1994 3.92799 17.3434 3.78399ZM7.93541 13.888L7.33541 14.32C7.21541 14.416 7.16741 14.56 7.21541 14.68L7.45541 15.376C7.47941 15.448 7.45541 15.52 7.40741 15.544C7.35941 15.592 7.26341 15.592 7.21541 15.544L6.61541 15.112C6.49541 15.016 6.35141 15.016 6.23141 15.112L5.63141 15.544C5.58341 15.592 5.51141 15.592 5.43941 15.544C5.39141 15.496 5.36741 15.424 5.39141 15.376L5.63141 14.68C5.67941 14.536 5.63141 14.392 5.51141 14.32L4.91141 13.888C4.86341 13.864 4.83941 13.816 4.83941 13.768C4.83941 13.672 4.91141 13.6 5.00741 13.6H5.75141C5.89541 13.6 6.01541 13.504 6.06341 13.36L6.30341 12.664C6.32741 12.592 6.37541 12.544 6.44741 12.544C6.51941 12.544 6.56741 12.592 6.59141 12.664L6.83141 13.36C6.87941 13.504 6.99941 13.6 7.14341 13.6H7.83941C7.93541 13.6 8.00741 13.672 8.00741 13.768C8.00741 13.792 7.98341 13.84 7.93541 13.888ZM13.0954 6.90399L12.0874 7.62399C11.9674 7.71999 11.9194 7.86399 11.9674 7.98399L12.3514 9.15999C12.3754 9.25599 12.3514 9.37599 12.2554 9.42399C12.1594 9.49599 12.0634 9.47199 11.9674 9.42399L10.9594 8.70399C10.8394 8.60799 10.6954 8.60799 10.5754 8.70399L9.56741 9.42399C9.49541 9.47199 9.37541 9.49599 9.27941 9.42399C9.18341 9.35199 9.15941 9.25599 9.18341 9.15999C9.18341 9.15999 9.42341 8.39199 9.56741 7.98399C9.61541 7.83999 9.56741 7.69599 9.44741 7.62399L8.43941 6.90399C8.36741 6.85599 8.34341 6.78399 8.34341 6.71199C8.34341 6.56799 8.46341 6.47199 8.58341 6.47199H9.80741C9.95141 6.47199 10.0714 6.37599 10.1194 6.23199L10.5034 5.05599C10.5274 4.95999 10.6234 4.88799 10.7434 4.88799C10.8394 4.88799 10.9354 4.95999 10.9834 5.05599L11.3674 6.23199C11.4154 6.37599 11.5354 6.47199 11.6794 6.47199H12.9034C13.0474 6.47199 13.1434 6.59199 13.1434 6.71199C13.1914 6.80799 13.1674 6.87999 13.0954 6.90399Z" fill="#FFF30E"/>
</svg>
