<svg width="52" height="10" viewBox="0 0 52 10" fill="none" xmlns="http://www.w3.org/2000/svg">
<path d="M4.74247 6.924C4.74247 8.232 3.87847 9.108 2.69047 9.108C1.50247 9.108 0.638469 8.232 0.638469 6.924V2.676C0.638469 1.368 1.50247 0.491999 2.69047 0.491999C3.87847 0.491999 4.74247 1.368 4.74247 2.676V6.924ZM3.54247 7.056V2.532C3.54247 1.896 3.17047 1.512 2.69047 1.512C2.19847 1.512 1.85047 1.896 1.85047 2.532V7.068C1.85047 7.704 2.19847 8.088 2.69047 8.088C3.17047 8.088 3.54247 7.704 3.54247 7.056ZM8.83934 5.628H8.10734V9H6.89534V0.599999H8.83934C10.0273 0.599999 10.8793 1.476 10.8793 2.784V3.444C10.8793 4.752 10.0273 5.628 8.83934 5.628ZM8.80334 1.608H8.10734V4.608H8.80334C9.31934 4.608 9.66734 4.224 9.66734 3.576V2.64C9.66734 2.004 9.31934 1.608 8.80334 1.608ZM15.3386 6.924C15.3386 8.232 14.4746 9.108 13.2866 9.108C12.0986 9.108 11.2346 8.232 11.2346 6.924V2.676C11.2346 1.368 12.0986 0.491999 13.2866 0.491999C14.4746 0.491999 15.3386 1.368 15.3386 2.676V6.924ZM14.1386 7.056V2.532C14.1386 1.896 13.7666 1.512 13.2866 1.512C12.7946 1.512 12.4466 1.896 12.4466 2.532V7.068C12.4466 7.704 12.7946 8.088 13.2866 8.088C13.7666 8.088 14.1386 7.704 14.1386 7.056ZM17.8122 0.491999C18.9642 0.491999 19.7922 1.284 19.7922 2.472V3.12C19.7922 3.84 19.4802 4.344 18.9762 4.668C19.5762 4.98 19.9602 5.568 19.9602 6.372V7.044C19.9602 8.28 19.0602 9.108 17.8242 9.108C16.6242 9.108 15.7602 8.232 15.7602 6.924V6.408H16.9722V7.056C16.9722 7.704 17.3322 8.088 17.8242 8.088C18.3402 8.088 18.7482 7.692 18.7482 7.032V6.18C18.7482 5.58 18.3882 5.208 17.9082 5.208H17.2602V4.2H17.7402C18.2082 4.2 18.5802 3.852 18.5802 3.276V2.508C18.5802 1.884 18.2442 1.512 17.8122 1.512C17.3442 1.512 16.9722 1.896 16.9722 2.532V3.204H15.7602V2.676C15.7602 1.368 16.6242 0.491999 17.8122 0.491999ZM20.4211 9V0.599999H21.6331V3.972H22.4011C23.5891 3.972 24.4411 4.848 24.4411 6.156V6.816C24.4411 8.124 23.5891 9 22.4011 9H20.4211ZM24.9331 9V0.599999H26.1331V9H24.9331ZM22.3651 4.992H21.6331V7.992H22.3651C22.8811 7.992 23.2291 7.596 23.2291 6.96V6.024C23.2291 5.376 22.8811 4.992 22.3651 4.992ZM29.8857 0.599999V1.608H27.9777V9H26.7657V0.599999H29.8857ZM32.1011 5.628H31.3691V9H30.1571V0.599999H32.1011C33.2891 0.599999 34.1411 1.476 34.1411 2.784V3.444C34.1411 4.752 33.2891 5.628 32.1011 5.628ZM32.0651 1.608H31.3691V4.608H32.0651C32.5811 4.608 32.9291 4.224 32.9291 3.576V2.64C32.9291 2.004 32.5811 1.608 32.0651 1.608ZM34.5563 9V0.599999H35.7683V3.972H36.5363C37.7243 3.972 38.5763 4.848 38.5763 6.156V6.816C38.5763 8.124 37.7243 9 36.5363 9H34.5563ZM39.0683 9V0.599999H40.2683V9H39.0683ZM36.5003 4.992H35.7683V7.992H36.5003C37.0163 7.992 37.3643 7.596 37.3643 6.96V6.024C37.3643 5.376 37.0163 4.992 36.5003 4.992ZM46.3248 0.599999H47.5368V9H40.9008V0.599999H42.1128V7.992H43.6128V0.599999H44.8248V7.992H46.3248V0.599999ZM51.4114 7.992V9H48.1594V0.599999H51.4114V1.608H49.3714V4.272H51.1594V5.28H49.3714V7.992H51.4114Z" fill="#ffffff"/>
</svg>
