<svg width="41" height="9" viewBox="0 0 41 9" fill="none" xmlns="http://www.w3.org/2000/svg">
<path d="M1.94442 5.136H1.21242V8.508H0.000421122V0.108003H1.94442C3.13242 0.108003 3.98442 0.984003 3.98442 2.292V2.952C3.98442 4.26 3.13242 5.136 1.94442 5.136ZM1.90842 1.116H1.21242V4.116H1.90842C2.42442 4.116 2.77242 3.732 2.77242 3.084V2.148C2.77242 1.512 2.42442 1.116 1.90842 1.116ZM8.44364 6.432C8.44364 7.74 7.57964 8.616 6.39164 8.616C5.20364 8.616 4.33964 7.74 4.33964 6.432V2.184C4.33964 0.876003 5.20364 2.6226e-06 6.39164 2.6226e-06C7.57964 2.6226e-06 8.44364 0.876003 8.44364 2.184V6.432ZM7.24364 6.564V2.04C7.24364 1.404 6.87164 1.02 6.39164 1.02C5.89964 1.02 5.55164 1.404 5.55164 2.04V6.576C5.55164 7.212 5.89964 7.596 6.39164 7.596C6.87164 7.596 7.24364 7.212 7.24364 6.564ZM10.9172 2.6226e-06C12.0692 2.6226e-06 12.8972 0.792003 12.8972 1.98V2.628C12.8972 3.348 12.5852 3.852 12.0812 4.176C12.6812 4.488 13.0652 5.076 13.0652 5.88V6.552C13.0652 7.788 12.1652 8.616 10.9292 8.616C9.72923 8.616 8.86523 7.74 8.86523 6.432V5.916H10.0772V6.564C10.0772 7.212 10.4372 7.596 10.9292 7.596C11.4452 7.596 11.8532 7.2 11.8532 6.54V5.688C11.8532 5.088 11.4932 4.716 11.0132 4.716H10.3652V3.708H10.8452C11.3132 3.708 11.6852 3.36 11.6852 2.784V2.016C11.6852 1.392 11.3492 1.02 10.9172 1.02C10.4492 1.02 10.0772 1.404 10.0772 2.04V2.712H8.86523V2.184C8.86523 0.876003 9.72923 2.6226e-06 10.9172 2.6226e-06ZM13.5262 8.508V0.108003H14.7382V3.48H15.5062C16.6942 3.48 17.5462 4.356 17.5462 5.664V6.324C17.5462 7.632 16.6942 8.508 15.5062 8.508H13.5262ZM18.0382 8.508V0.108003H19.2382V8.508H18.0382ZM15.4702 4.5H14.7382V7.5H15.4702C15.9862 7.5 16.3342 7.104 16.3342 6.468V5.532C16.3342 4.884 15.9862 4.5 15.4702 4.5ZM22.9907 0.108003V1.116H21.0827V8.508H19.8707V0.108003H22.9907ZM25.2061 5.136H24.4741V8.508H23.2621V0.108003H25.2061C26.3941 0.108003 27.2461 0.984003 27.2461 2.292V2.952C27.2461 4.26 26.3941 5.136 25.2061 5.136ZM25.1701 1.116H24.4741V4.116H25.1701C25.6861 4.116 26.0341 3.732 26.0341 3.084V2.148C26.0341 1.512 25.6861 1.116 25.1701 1.116ZM27.6614 8.508V0.108003H28.8734V3.48H29.6414C30.8294 3.48 31.6814 4.356 31.6814 5.664V6.324C31.6814 7.632 30.8294 8.508 29.6414 8.508H27.6614ZM32.1734 8.508V0.108003H33.3734V8.508H32.1734ZM29.6054 4.5H28.8734V7.5H29.6054C30.1214 7.5 30.4694 7.104 30.4694 6.468V5.532C30.4694 4.884 30.1214 4.5 29.6054 4.5ZM39.4299 0.108003H40.6419V8.508H34.0059V0.108003H35.2179V7.5H36.7179V0.108003H37.9299V7.5H39.4299V0.108003Z" fill="#ffffff"/>
</svg>
