<svg width="20" height="16" viewBox="0 0 20 16" fill="none" xmlns="http://www.w3.org/2000/svg">
<path d="M11.511 8.78906H17.271C17.679 8.78906 17.991 9.10106 17.991 9.50906V15.2691C17.991 15.6771 17.679 15.9891 17.271 15.9891H11.511C11.103 15.9891 10.791 15.6771 10.791 15.2691V9.50906C10.791 9.12506 11.127 8.78906 11.511 8.78906Z" fill="white"/>
<path d="M2.72781 8.78906H8.48781C8.89581 8.78906 9.20781 9.10106 9.20781 9.50906V15.2691C9.20781 15.6771 8.89581 15.9891 8.48781 15.9891H2.72781C2.31981 15.9891 2.00781 15.6771 2.00781 15.2691V9.50906C2.00781 9.12506 2.31981 8.78906 2.72781 8.78906Z" fill="white"/>
<path d="M16.407 3.86884C16.599 3.38884 16.695 2.83684 16.575 2.26084C16.335 1.03684 15.255 0.0768362 14.007 0.00483616C13.167 -0.0431638 12.399 0.268836 11.847 0.820836L10.167 2.50084C10.071 2.59684 9.903 2.59684 9.807 2.50084L8.127 0.820836C7.527 0.220836 6.687 -0.0911642 5.751 0.0288358C4.647 0.172836 3.735 1.01284 3.447 2.09284C3.279 2.74084 3.351 3.34084 3.567 3.86884C3.591 3.94084 3.543 4.01284 3.471 4.01284H1.095C0.687 4.01284 0.375 4.32484 0.375 4.73284V6.48484C0.375 6.89284 0.687 7.20484 1.095 7.20484H18.855C19.263 7.20484 19.575 6.89284 19.575 6.48484V4.73284C19.575 4.32484 19.263 4.01284 18.855 4.01284H16.479C16.431 3.98884 16.383 3.91684 16.407 3.86884ZM6.159 3.98884C5.415 3.98884 4.839 3.31684 4.983 2.54884C5.079 2.09284 5.463 1.70884 5.919 1.61284C6.327 1.54084 6.711 1.66084 6.999 1.94884L8.823 3.77284C8.895 3.84484 8.847 3.98884 8.727 3.98884H6.159ZM13.791 3.98884H11.463C11.151 3.98884 11.103 3.84484 11.175 3.77284L12.999 1.94884C13.215 1.73284 13.527 1.58884 13.839 1.58884C14.535 1.58884 15.111 2.18884 15.039 2.90884C14.967 3.53284 14.415 3.98884 13.791 3.98884Z" fill="white"/>
</svg>
