<svg width="350" height="51" viewBox="0 0 350 51" fill="none" xmlns="http://www.w3.org/2000/svg">
<g filter="url(#filter0_d_206_3473)">
<path d="M13.4486 32H9.8126V6.8H22.1246V32H18.4886V9.824H13.4486V32ZM30.4618 21.884H28.2658V32H24.6298V6.8H30.4618C34.0258 6.8 36.5818 9.428 36.5818 13.352V15.332C36.5818 19.256 34.0258 21.884 30.4618 21.884ZM30.3538 9.824H28.2658V18.824H30.3538C31.9018 18.824 32.9458 17.672 32.9458 15.728V12.92C32.9458 11.012 31.9018 9.824 30.3538 9.824ZM39.3294 32H35.5854L41.2374 6.8H44.9814L50.6334 32H46.8894L45.9174 26.96H40.3014L39.3294 32ZM43.1094 12.56L40.8774 23.936H45.3054L43.1094 12.56ZM57.2443 6.476C60.7003 6.476 63.1843 8.852 63.1843 12.416V14.36C63.1843 16.52 62.2483 18.032 60.7363 19.004C62.5363 19.94 63.6883 21.704 63.6883 24.116V26.132C63.6883 29.84 60.9883 32.324 57.2803 32.324C53.6803 32.324 51.0883 29.696 51.0883 25.772V24.224H54.7243V26.168C54.7243 28.112 55.8043 29.264 57.2803 29.264C58.8283 29.264 60.0523 28.076 60.0523 26.096V23.54C60.0523 21.74 58.9723 20.624 57.5323 20.624H55.5883V17.6H57.0283C58.4323 17.6 59.5483 16.556 59.5483 14.828V12.524C59.5483 10.652 58.5403 9.536 57.2443 9.536C55.8403 9.536 54.7243 10.688 54.7243 12.596V14.612H51.0883V13.028C51.0883 9.104 53.6803 6.476 57.2443 6.476ZM78.8264 6.8V28.976H81.3464V37.148H77.7104V32H67.6304V37.148H64.0304V28.976H66.1184C66.9104 27.356 67.5944 23.612 67.5944 10.904V6.8H78.8264ZM70.9424 10.904C70.9424 21.416 70.6184 26.492 69.3944 28.976H75.1904V9.824H70.9424V10.904ZM86.4447 32H82.8087V6.8H86.4447V17.816H91.5567V6.8H95.1927V32H91.5567V20.84H86.4447V32ZM100.684 32H97.6962V6.8H101.332V22.712L107.272 6.8H110.296V32H106.66V16.016L100.684 32ZM121.867 32L116.431 19.436V32H112.795V6.8H116.431V18.428L121.399 6.8H125.287L119.923 18.968L125.755 32H121.867ZM135.975 32H132.339V6.8H144.651V32H141.015V9.824H135.975V32ZM152.988 21.884H150.792V32H147.156V6.8H152.988C156.552 6.8 159.108 9.428 159.108 13.352V15.332C159.108 19.256 156.552 21.884 152.988 21.884ZM152.88 9.824H150.792V18.824H152.88C154.428 18.824 155.472 17.672 155.472 15.728V12.92C155.472 11.012 154.428 9.824 152.88 9.824ZM163.942 32H160.954V6.8H164.59V22.712L170.53 6.8H173.554V32H169.918V16.016L163.942 32ZM184.656 6.8H188.508L183.864 19.112L188.724 32H184.872L181.74 22.892L178.716 32H174.828L179.688 19.076L175.08 6.8H178.932L181.812 15.26L184.656 6.8ZM201.384 25.772C201.384 29.696 198.792 32.324 195.228 32.324C191.664 32.324 189.072 29.696 189.072 25.772V13.028C189.072 9.104 191.664 6.476 195.228 6.476C198.792 6.476 201.384 9.104 201.384 13.028V25.772ZM197.784 26.168V12.596C197.784 10.688 196.668 9.536 195.228 9.536C193.752 9.536 192.708 10.688 192.708 12.596V26.204C192.708 28.112 193.752 29.264 195.228 29.264C196.668 29.264 197.784 28.112 197.784 26.168ZM216.944 6.8V28.976H219.464V37.148H215.828V32H205.748V37.148H202.148V28.976H204.236C205.028 27.356 205.712 23.612 205.712 10.904V6.8H216.944ZM209.06 10.904C209.06 21.416 208.736 26.492 207.512 28.976H213.308V9.824H209.06V10.904ZM223.914 32H220.926V6.8H224.562V22.712L230.502 6.8H233.526V32H229.89V16.016L223.914 32ZM247.148 6.8V9.824H242.864V32H239.264V9.824H234.98V6.8H247.148ZM262.449 24.224H266.049V25.772C266.049 29.696 263.457 32.324 259.893 32.324C256.329 32.324 253.737 29.696 253.737 25.772V13.028C253.737 9.104 256.329 6.476 259.893 6.476C263.457 6.476 266.049 9.104 266.049 13.028V14.612H262.449V12.596C262.449 10.688 261.333 9.536 259.893 9.536C258.417 9.536 257.373 10.688 257.373 12.596V26.204C257.373 28.148 258.417 29.264 259.893 29.264C261.333 29.264 262.449 28.112 262.449 26.168V24.224ZM277.027 32H273.391V6.8H277.027V17.816H282.139V6.8H285.775V32H282.139V20.84H277.027V32ZM290.762 32H287.018L292.67 6.8H296.414L302.066 32H298.322L297.35 26.96H291.734L290.762 32ZM294.542 12.56L292.31 23.936H296.738L294.542 12.56ZM306.582 32H303.342V6.8H306.294L310.866 21.596L315.474 6.8H318.426V32H315.15V17.312L311.874 27.5H309.894L306.582 17.204V32ZM323.889 32H320.901V6.8H324.537V22.712L330.477 6.8H333.501V32H329.865V16.016L323.889 32ZM336.251 32V27.824H339.923V32H336.251ZM336.683 24.656L336.251 6.8H339.887L339.491 24.656H336.683Z" fill="url(#paint0_linear_206_3473)"/>
</g>
<defs>
<filter id="filter0_d_206_3473" x="0.2125" y="0.876074" width="349.311" height="49.8719" filterUnits="userSpaceOnUse" color-interpolation-filters="sRGB">
<feFlood flood-opacity="0" result="BackgroundImageFix"/>
<feColorMatrix in="SourceAlpha" type="matrix" values="0 0 0 0 0 0 0 0 0 0 0 0 0 0 0 0 0 0 127 0" result="hardAlpha"/>
<feOffset dy="4"/>
<feGaussianBlur stdDeviation="4.8"/>
<feComposite in2="hardAlpha" operator="out"/>
<feColorMatrix type="matrix" values="0 0 0 0 0.380392 0 0 0 0 0 0 0 0 0 0.0431373 0 0 0 0.77 0"/>
<feBlend mode="normal" in2="BackgroundImageFix" result="effect1_dropShadow_206_3473"/>
<feBlend mode="normal" in="SourceGraphic" in2="effect1_dropShadow_206_3473" result="shape"/>
</filter>
<linearGradient id="paint0_linear_206_3473" x1="175" y1="5" x2="175" y2="41" gradientUnits="userSpaceOnUse">
<stop stop-color="#FEDE02"/>
<stop offset="1" stop-color="#FE9900"/>
</linearGradient>
</defs>
</svg>
