<svg width="24" height="25" viewBox="0 0 24 25" fill="none" xmlns="http://www.w3.org/2000/svg">
<g filter="url(#filter0_i_414_57406)">
<path fill-rule="evenodd" clip-rule="evenodd" d="M3.9 10.6084V8.13253C3.9 5.97565 4.75339 3.90711 6.27244 2.38196C7.79148 0.856818 9.85175 0 12 0C14.1483 0 16.2085 0.856818 17.7276 2.38196C19.2466 3.90711 20.1 5.97565 20.1 8.13253V10.6084C21.438 10.7084 22.308 10.9614 22.9452 11.6012C24 12.659 24 14.3639 24 17.7711C24 21.1783 24 22.8831 22.9452 23.941C21.8916 25 20.1936 25 16.8 25H7.2C3.8064 25 2.1084 25 1.0548 23.941C-7.15256e-08 22.8831 0 21.1783 0 17.7711C0 14.3639 -7.15256e-08 12.659 1.0548 11.6012C1.6908 10.9614 2.562 10.7084 3.9 10.6084ZM5.7 8.13253C5.7 6.45496 6.36375 4.84609 7.54523 3.65987C8.72671 2.47364 10.3291 1.80723 12 1.80723C13.6709 1.80723 15.2733 2.47364 16.4548 3.65987C17.6363 4.84609 18.3 6.45496 18.3 8.13253V10.547C17.8408 10.543 17.3408 10.5414 16.8 10.5422H7.2C6.6584 10.5414 6.1584 10.543 5.7 10.547V8.13253Z" fill="url(#paint0_linear_414_57406)"/>
</g>
<path d="M12 0.5C14.0148 0.5 15.9476 1.30343 17.373 2.73438C18.7985 4.1656 19.5996 6.10789 19.5996 8.13281V11.0723L20.0625 11.1074C21.2863 11.1989 21.9924 11.4165 22.4932 11.8623L22.5908 11.9541C23.01 12.3744 23.2486 12.942 23.373 13.8711C23.4994 14.8145 23.5 16.0538 23.5 17.7715C23.5 19.489 23.4994 20.7275 23.373 21.6709C23.2486 22.6001 23.01 23.1675 22.5908 23.5879C22.1724 24.0084 21.608 24.2472 20.6836 24.3721C19.7444 24.4989 18.5108 24.5 16.7998 24.5H7.2002C5.4892 24.5 4.25557 24.4989 3.31641 24.3721C2.39202 24.2472 1.82755 24.0084 1.40918 23.5879L1.25977 23.4229C0.931849 23.0199 0.735857 22.4838 0.626953 21.6709C0.500593 20.7275 0.5 19.489 0.5 17.7715C0.5 16.0538 0.500583 14.8145 0.626953 13.8711C0.735871 13.0582 0.93182 12.522 1.25977 12.1191L1.40918 11.9541C1.91417 11.4461 2.63181 11.205 3.9375 11.1074L4.40039 11.0723V8.13281C4.40039 6.10789 5.20145 4.1656 6.62695 2.73438C8.05235 1.30343 9.98516 0.5 12 0.5ZM12 1.30762C10.1961 1.30762 8.46646 2.02669 7.19141 3.30664C5.91638 4.58679 5.2002 6.32328 5.2002 8.13281V11.0518L5.7041 11.0469C6.16051 11.0429 6.65905 11.0412 7.19922 11.042H16.8008C17.3402 11.0412 17.8387 11.0429 18.2959 11.0469L18.7998 11.0518V8.13281C18.7998 6.32328 18.0836 4.58679 16.8086 3.30664C15.5335 2.02669 13.8039 1.30762 12 1.30762Z" stroke="white" stroke-opacity="0.38" style="mix-blend-mode:overlay"/>
<defs>
<filter id="filter0_i_414_57406" x="0" y="-2" width="29" height="27" filterUnits="userSpaceOnUse" color-interpolation-filters="sRGB">
<feFlood flood-opacity="0" result="BackgroundImageFix"/>
<feBlend mode="normal" in="SourceGraphic" in2="BackgroundImageFix" result="shape"/>
<feColorMatrix in="SourceAlpha" type="matrix" values="0 0 0 0 0 0 0 0 0 0 0 0 0 0 0 0 0 0 127 0" result="hardAlpha"/>
<feOffset dx="5" dy="-2"/>
<feGaussianBlur stdDeviation="5.7"/>
<feComposite in2="hardAlpha" operator="arithmetic" k2="-1" k3="1"/>
<feColorMatrix type="matrix" values="0 0 0 0 1 0 0 0 0 1 0 0 0 0 1 0 0 0 1 0"/>
<feBlend mode="overlay" in2="shape" result="effect1_innerShadow_414_57406"/>
</filter>
<linearGradient id="paint0_linear_414_57406" x1="12" y1="0" x2="12" y2="25" gradientUnits="userSpaceOnUse">
<stop stop-color="#EA0300"/>
<stop offset="1" stop-color="#840715"/>
</linearGradient>
</defs>
</svg>
