<svg width="57" height="52" viewBox="0 0 57 52" fill="none" xmlns="http://www.w3.org/2000/svg">
<g filter="url(#filter0_i_234_60454)">
<path d="M9.08666 35.7172C7.55897 33.5889 6.47578 31.1753 5.90325 28.624C5.33073 26.0727 5.28089 23.4373 5.75678 20.8786C6.23268 18.32 7.22431 15.8919 8.67111 13.7427C10.1179 11.5935 11.9895 9.76829 14.1715 8.3786C16.3535 6.98892 18.8002 6.06393 21.362 5.66014C23.9238 5.25635 26.547 5.38224 29.0713 6.03012C31.5956 6.67799 33.9681 7.83425 36.0437 9.42826C38.1193 11.0223 39.8545 13.0206 41.1434 15.3011C42.3989 15.0209 43.6634 14.937 44.9052 15.0291C44.3257 13.8145 43.6295 12.6391 42.8167 11.5029C40.8212 8.72653 38.2342 6.42937 35.2475 4.78178C32.2608 3.13419 28.951 2.17844 25.5637 1.98541C22.1763 1.79239 18.7983 2.36704 15.6802 3.66675C12.562 4.96646 9.78375 6.95787 7.55138 9.49331C5.31902 12.0287 3.68985 15.0431 2.7847 18.3129C1.87955 21.5827 1.72164 25.0241 2.32269 28.3816C2.92374 31.7392 4.26832 34.927 6.25671 37.7084C8.24511 40.4898 10.8263 42.7936 13.8088 44.4489C14.023 43.2283 14.3714 42.0938 14.8541 41.0456C12.5924 39.6815 10.6291 37.8677 9.08666 35.7172ZM37.195 15.5386C37.4239 15.8574 37.6402 16.1824 37.8439 16.5136L34.702 18.0229C34.5991 17.8638 34.4932 17.7083 34.3842 17.5565C33.293 16.0379 31.8735 14.7858 30.234 13.8959C28.5946 13.006 26.7787 12.5018 24.9251 12.422C23.0716 12.3421 21.2295 12.6887 19.5397 13.4352C17.8498 14.1816 16.357 15.3082 15.1753 16.7289C13.9937 18.1495 13.1545 19.8266 12.7218 21.6318C12.2892 23.437 12.2746 25.3227 12.6792 27.1445C13.0838 28.9664 13.8968 30.6762 15.0561 32.1433C16.2154 33.6105 17.6904 34.796 19.3681 35.6093C18.3801 36.3304 17.4837 37.1695 16.6983 38.1083C14.6854 36.9108 12.9588 35.2803 11.6444 33.336C10.33 31.3916 9.46092 29.1824 9.10057 26.8694C8.74022 24.5565 8.89768 22.1981 9.56147 19.9664C10.2253 17.7346 11.3786 15.6858 12.9375 13.9693C14.4963 12.2528 16.4213 10.9119 18.572 10.0445C20.7227 9.17713 23.0449 8.80505 25.3692 8.95542C27.6935 9.10579 29.9614 9.77482 32.0072 10.9137C34.0531 12.0526 35.8255 13.6327 37.195 15.5386ZM18.2864 24.7991C17.4734 23.6666 17.1379 22.2616 17.3537 20.8932C17.5696 19.5248 18.319 18.305 19.4373 17.5023C20.5555 16.6995 21.9509 16.3795 23.3164 16.6127C24.682 16.8458 25.9059 17.613 26.7189 18.7455L30.9696 24.6666L40.2754 20.2034C41.4183 19.6557 42.67 19.3682 43.9422 19.3612C45.2143 19.3542 46.4758 19.6278 47.6375 20.1628C48.7992 20.6978 49.8328 21.4811 50.6651 22.4573C51.4975 23.4335 52.1083 24.5787 52.4545 25.8121L55.1478 35.3963C55.5633 36.873 55.5859 38.4287 55.2136 39.9075C54.8412 41.3862 54.087 42.736 53.0264 43.8213L49.2998 47.6311C46.7825 50.2061 42.8679 50.2771 39.9418 49.0432C36.0489 47.4119 29.4434 46.0543 21.5712 50.4676C21.3559 50.5882 21.1169 50.6609 20.8701 50.6807C20.6233 50.7006 20.3746 50.6672 20.1405 50.5828C19.9064 50.4983 19.6924 50.3648 19.5129 50.1912C19.3333 50.0175 19.1924 49.8078 19.0996 49.576C18.307 47.5998 18.1691 45.7404 18.6195 44.0539C19.058 42.3803 20.0347 41.0234 21.2191 39.9618C22.8341 38.509 24.9276 37.5152 26.9738 36.9004L18.2864 24.7991Z" fill="url(#paint0_linear_234_60454)"/>
</g>
<path d="M19.1458 17.0958C20.3734 16.2146 21.9042 15.8644 23.4005 16.1199C24.8966 16.3753 26.2357 17.2158 27.1248 18.4544L31.1302 24.0337L40.0592 19.7527C41.2689 19.173 42.5938 18.869 43.9395 18.8616C45.2852 18.8543 46.6188 19.1436 47.8465 19.709C49.0743 20.2744 50.1668 21.1018 51.0461 22.1329C51.9252 23.164 52.5707 24.374 52.9364 25.6771L55.6291 35.2605C56.068 36.8206 56.0921 38.4652 55.6984 40.029C55.3046 41.593 54.5062 43.022 53.3835 44.1709L49.6571 47.9809C46.95 50.7497 42.7933 50.7884 39.7472 49.5039L39.7466 49.5031C35.9562 47.9152 29.5189 46.5849 21.8156 50.9034C21.5373 51.0593 21.2286 51.1538 20.9103 51.1795C20.592 51.2051 20.2717 51.1617 19.9709 51.0532C19.6701 50.9447 19.3955 50.7733 19.1654 50.5507C18.9352 50.3281 18.7541 50.0589 18.6351 49.7618C17.8091 47.702 17.6539 45.7323 18.1356 43.9268L18.2299 43.5959C18.7349 41.9597 19.723 40.6313 20.8849 39.5897L21.2065 39.3108C22.6578 38.0997 24.4181 37.2265 26.1667 36.6335L17.8804 25.0908C16.9913 23.8523 16.6233 22.3147 16.8597 20.8155C17.0962 19.3159 17.9182 17.9771 19.1458 17.0958ZM7.17574 9.16298C9.4583 6.57053 12.2996 4.53441 15.4878 3.20547C18.6761 1.87653 22.1298 1.28897 25.5923 1.48628C29.0547 1.68362 32.4371 2.66036 35.4889 4.34383C38.5408 6.02736 41.1838 8.37493 43.2225 11.2114L43.2231 11.2122C44.0523 12.3714 44.764 13.5717 45.3566 14.8138L45.7271 15.5912L44.8677 15.5277C43.6736 15.4392 42.4579 15.5199 41.2517 15.7891L40.89 15.8696L40.7078 15.5472C39.452 13.3252 37.7615 11.3781 35.7392 9.82506C33.7169 8.272 31.4057 7.14545 28.9471 6.51442C26.4885 5.88341 23.9336 5.76102 21.4395 6.15415C18.9455 6.5473 16.5634 7.44762 14.4396 8.80024C12.3158 10.1529 10.4942 11.9303 9.08587 14.0225C7.67758 16.1146 6.7121 18.4784 6.24866 20.97C5.7852 23.4618 5.83326 26.0291 6.39104 28.5147C6.94882 31.0002 8.0041 33.3518 9.49261 35.4256C10.9956 37.5211 12.9088 39.2889 15.1122 40.6179L15.4956 40.8488L15.3086 41.2547C14.8451 42.261 14.5082 43.3537 14.301 44.535L14.1797 45.2268L13.566 44.886C10.5186 43.1947 7.88157 40.841 5.85021 37.9996C3.81875 35.1579 2.44441 31.9005 1.83025 28.4697C1.21611 25.0389 1.37731 21.5216 2.30253 18.1793C3.22775 14.8371 4.89332 11.7553 7.17574 9.16298ZM12.5676 13.6327C14.1771 11.8606 16.1645 10.4759 18.3849 9.5804C20.6054 8.68485 23.0027 8.3011 25.4015 8.45628C27.8003 8.61147 30.1405 9.30202 32.2509 10.4768C34.3611 11.6516 36.1888 13.2815 37.6011 15.2469L37.9449 15.7443C38.0564 15.9118 38.1645 16.081 38.2695 16.2517L38.5607 16.7243L38.0601 16.9647L34.9187 18.4733L34.5213 18.6648L34.2819 18.2945C34.1834 18.1422 34.0823 17.993 33.9781 17.8479C32.9309 16.3906 31.5686 15.1891 29.9958 14.3353C28.4228 13.4814 26.6805 12.9982 24.9033 12.9217C23.1264 12.8451 21.3609 13.1769 19.7419 13.8921C18.1227 14.6074 16.6918 15.6871 15.5595 17.0485C14.4272 18.4098 13.6224 20.0173 13.2076 21.7482C12.7927 23.4792 12.7795 25.2882 13.1677 27.0363C13.5559 28.7842 14.336 30.4248 15.4486 31.8328C16.5612 33.2408 17.9763 34.3792 19.5859 35.1595L20.3353 35.5219L19.6626 36.0132C18.7076 36.7103 17.8405 37.5213 17.0812 38.429L16.8085 38.7558L16.4427 38.5376C14.3665 37.3023 12.5855 35.6209 11.23 33.6158C9.87453 31.6107 8.9776 29.3321 8.6059 26.9463C8.23422 24.5605 8.39771 22.1271 9.08277 19.8239C9.76786 17.5206 10.9582 15.405 12.5676 13.6327Z" stroke="white" stroke-opacity="0.38" style="mix-blend-mode:overlay"/>
<path d="M19.1458 17.0958C20.3734 16.2146 21.9042 15.8644 23.4005 16.1199C24.8966 16.3753 26.2357 17.2158 27.1248 18.4544L31.1302 24.0337L40.0592 19.7527C41.2689 19.173 42.5938 18.869 43.9395 18.8616C45.2852 18.8543 46.6188 19.1436 47.8465 19.709C49.0743 20.2744 50.1668 21.1018 51.0461 22.1329C51.9252 23.164 52.5707 24.374 52.9364 25.6771L55.6291 35.2605C56.068 36.8206 56.0921 38.4652 55.6984 40.029C55.3046 41.593 54.5062 43.022 53.3835 44.1709L49.6571 47.9809C46.95 50.7497 42.7933 50.7884 39.7472 49.5039L39.7466 49.5031C35.9562 47.9152 29.5189 46.5849 21.8156 50.9034C21.5373 51.0593 21.2286 51.1538 20.9103 51.1795C20.592 51.2051 20.2717 51.1617 19.9709 51.0532C19.6701 50.9447 19.3955 50.7733 19.1654 50.5507C18.9352 50.3281 18.7541 50.0589 18.6351 49.7618C17.8091 47.702 17.6539 45.7323 18.1356 43.9268L18.2299 43.5959C18.7349 41.9597 19.723 40.6313 20.8849 39.5897L21.2065 39.3108C22.6578 38.0997 24.4181 37.2265 26.1667 36.6335L17.8804 25.0908C16.9913 23.8523 16.6233 22.3147 16.8597 20.8155C17.0962 19.3159 17.9182 17.9771 19.1458 17.0958ZM7.17574 9.16298C9.4583 6.57053 12.2996 4.53441 15.4878 3.20547C18.6761 1.87653 22.1298 1.28897 25.5923 1.48628C29.0547 1.68362 32.4371 2.66036 35.4889 4.34383C38.5408 6.02736 41.1838 8.37493 43.2225 11.2114L43.2231 11.2122C44.0523 12.3714 44.764 13.5717 45.3566 14.8138L45.7271 15.5912L44.8677 15.5277C43.6736 15.4392 42.4579 15.5199 41.2517 15.7891L40.89 15.8696L40.7078 15.5472C39.452 13.3252 37.7615 11.3781 35.7392 9.82506C33.7169 8.272 31.4057 7.14545 28.9471 6.51442C26.4885 5.88341 23.9336 5.76102 21.4395 6.15415C18.9455 6.5473 16.5634 7.44762 14.4396 8.80024C12.3158 10.1529 10.4942 11.9303 9.08587 14.0225C7.67758 16.1146 6.7121 18.4784 6.24866 20.97C5.7852 23.4618 5.83326 26.0291 6.39104 28.5147C6.94882 31.0002 8.0041 33.3518 9.49261 35.4256C10.9956 37.5211 12.9088 39.2889 15.1122 40.6179L15.4956 40.8488L15.3086 41.2547C14.8451 42.261 14.5082 43.3537 14.301 44.535L14.1797 45.2268L13.566 44.886C10.5186 43.1947 7.88157 40.841 5.85021 37.9996C3.81875 35.1579 2.44441 31.9005 1.83025 28.4697C1.21611 25.0389 1.37731 21.5216 2.30253 18.1793C3.22775 14.8371 4.89332 11.7553 7.17574 9.16298ZM12.5676 13.6327C14.1771 11.8606 16.1645 10.4759 18.3849 9.5804C20.6054 8.68485 23.0027 8.3011 25.4015 8.45628C27.8003 8.61147 30.1405 9.30202 32.2509 10.4768C34.3611 11.6516 36.1888 13.2815 37.6011 15.2469L37.9449 15.7443C38.0564 15.9118 38.1645 16.081 38.2695 16.2517L38.5607 16.7243L38.0601 16.9647L34.9187 18.4733L34.5213 18.6648L34.2819 18.2945C34.1834 18.1422 34.0823 17.993 33.9781 17.8479C32.9309 16.3906 31.5686 15.1891 29.9958 14.3353C28.4228 13.4814 26.6805 12.9982 24.9033 12.9217C23.1264 12.8451 21.3609 13.1769 19.7419 13.8921C18.1227 14.6074 16.6918 15.6871 15.5595 17.0485C14.4272 18.4098 13.6224 20.0173 13.2076 21.7482C12.7927 23.4792 12.7795 25.2882 13.1677 27.0363C13.5559 28.7842 14.336 30.4248 15.4486 31.8328C16.5612 33.2408 17.9763 34.3792 19.5859 35.1595L20.3353 35.5219L19.6626 36.0132C18.7076 36.7103 17.8405 37.5213 17.0812 38.429L16.8085 38.7558L16.4427 38.5376C14.3665 37.3023 12.5855 35.6209 11.23 33.6158C9.87453 31.6107 8.9776 29.3321 8.6059 26.9463C8.23422 24.5605 8.39771 22.1271 9.08277 19.8239C9.76786 17.5206 10.9582 15.405 12.5676 13.6327Z" stroke="url(#paint1_linear_234_60454)"/>
<defs>
<filter id="filter0_i_234_60454" x="0.964844" y="-1.05469" width="60.5117" height="52.7422" filterUnits="userSpaceOnUse" color-interpolation-filters="sRGB">
<feFlood flood-opacity="0" result="BackgroundImageFix"/>
<feBlend mode="normal" in="SourceGraphic" in2="BackgroundImageFix" result="shape"/>
<feColorMatrix in="SourceAlpha" type="matrix" values="0 0 0 0 0 0 0 0 0 0 0 0 0 0 0 0 0 0 127 0" result="hardAlpha"/>
<feOffset dx="5" dy="-2"/>
<feGaussianBlur stdDeviation="5.7"/>
<feComposite in2="hardAlpha" operator="arithmetic" k2="-1" k3="1"/>
<feColorMatrix type="matrix" values="0 0 0 0 1 0 0 0 0 1 0 0 0 0 1 0 0 0 1 0"/>
<feBlend mode="overlay" in2="shape" result="effect1_innerShadow_234_60454"/>
</filter>
<linearGradient id="paint0_linear_234_60454" x1="11.2778" y1="6.12078" x2="43.9355" y2="51.6122" gradientUnits="userSpaceOnUse">
<stop stop-color="#EA0300"/>
<stop offset="1" stop-color="#840715"/>
</linearGradient>
<linearGradient id="paint1_linear_234_60454" x1="11.2778" y1="6.12078" x2="43.9355" y2="51.6122" gradientUnits="userSpaceOnUse">
<stop stop-color="#FFC30B"/>
<stop offset="1" stop-color="#FF9500"/>
</linearGradient>
</defs>
</svg>
